<svg width="482.9" height="566.9666" xmlns="http://www.w3.org/2000/svg">

 <g>
  <title>background</title>
  <rect fill="none" id="canvas_background" height="568.9666" width="484.9" y="-1" x="-1"/>
 </g>
 <g>
  <title>Layer 1</title>
  <g id="svg_1">
   <g id="svg_2">
    <path id="svg_3" d="m239.699997,302.200012c0.5,0 1,0 1.600006,0c0.199997,0 0.399994,0 0.599991,0c0.300003,0 0.700012,0 1,0c29.300018,-0.5 53,-10.799988 70.5,-30.5c38.5,-43.400009 32.100006,-117.800003 31.399994,-124.899994c-2.5,-53.300003 -27.699982,-78.800011 -48.5,-90.700008c-15.5,-8.900009 -33.599976,-13.700008 -53.799988,-14.10001l-0.699997,0c-0.100006,0 -0.300003,0 -0.400009,0l-0.599991,0c-11.100006,0 -32.900009,1.799999 -53.800003,13.700001c-21,11.899998 -46.600006,37.399998 -49.100006,91.100002c-0.699997,7.099991 -7.099991,81.5 31.400009,124.900009c17.399994,19.699982 41.099991,30 70.399994,30.5zm-75.099991,-152.900009c0,-0.300003 0.100006,-0.600006 0.100006,-0.800003c3.300003,-71.699989 54.199997,-79.400002 76,-79.400002l0.399994,0c0.199997,0 0.5,0 0.800003,0c27.000015,0.599998 72.900009,11.599998 76.000015,79.400002c0,0.300003 0,0.600006 0.099976,0.800003c0.100006,0.699997 7.100006,68.699997 -24.699982,104.499985c-12.600006,14.200012 -29.399994,21.200012 -51.500015,21.400024c-0.199997,0 -0.299988,0 -0.5,0l0,0c-0.199997,0 -0.299988,0 -0.5,0c-22,-0.200012 -38.900009,-7.200012 -51.400009,-21.400024c-31.699997,-35.599991 -24.899994,-103.899994 -24.799988,-104.499985z"/>
    <path id="svg_4" d="m446.799988,425.600006c0,-0.100006 0,-0.199982 0,-0.299988c0,-0.800018 -0.100006,-1.600006 -0.100006,-2.5c-0.600006,-19.800018 -1.899994,-66.100006 -45.299988,-80.900024c-0.300018,-0.100006 -0.700012,-0.199982 -1,-0.299988c-45.100006,-11.5 -82.600006,-37.5 -83,-37.799988c-6.100006,-4.300018 -14.5,-2.800018 -18.800018,3.299988c-4.299988,6.100006 -2.799988,14.5 3.300018,18.799988c1.699982,1.200012 41.5,28.899994 91.299988,41.700012c23.300018,8.300018 25.899994,33.200012 26.600006,56c0,0.899994 0,1.700012 0.100006,2.5c0.100006,9 -0.5,22.899994 -2.100006,30.899994c-16.200012,9.200012 -79.699982,41 -176.300003,41c-96.199997,0 -160.100006,-31.899994 -176.399986,-41.099976c-1.599998,-8 -2.299999,-21.900024 -2.099998,-30.900024c0,-0.799988 0.099998,-1.599976 0.099998,-2.5c0.700001,-22.799988 3.300003,-47.699982 26.599998,-56c49.800003,-12.799988 89.599991,-40.599976 91.300003,-41.699982c6.100006,-4.300018 7.600006,-12.700012 3.300003,-18.800018c-4.300003,-6.099976 -12.699997,-7.599976 -18.800003,-3.299988c-0.399994,0.299988 -37.699997,26.299988 -83,37.799988c-0.400002,0.100006 -0.699997,0.200012 -1,0.300018c-43.400002,14.899994 -44.700001,61.199982 -45.299999,80.899994c0,0.899994 0,1.700012 -0.100002,2.5c0,0.100006 0,0.200012 0,0.299988c-0.099998,5.200012 -0.199997,31.900024 5.100002,45.300018c1,2.600006 2.799999,4.799988 5.200001,6.299988c3,2 74.900002,47.800018 195.200005,47.800018s192.199982,-45.900024 195.199982,-47.800018c2.299988,-1.5 4.200012,-3.699982 5.200012,-6.299988c5,-13.300018 4.899994,-40.000031 4.799988,-45.200012z"/>
   </g>
  </g>
  <g id="svg_5"/>
  <g id="svg_6"/>
  <g id="svg_7"/>
  <g id="svg_8"/>
  <g id="svg_9"/>
  <g id="svg_10"/>
  <g id="svg_11"/>
  <g id="svg_12"/>
  <g id="svg_13"/>
  <g id="svg_14"/>
  <g id="svg_15"/>
  <g id="svg_16"/>
  <g id="svg_17"/>
  <g id="svg_18"/>
  <g id="svg_19"/>
 </g>
</svg>