<svg xmlns="http://www.w3.org/2000/svg" width="35.947" height="30.796" viewBox="0 0 35.947 30.796">
  <g id="books-stack" transform="translate(0 -56.968)">
    <path id="Tracé_3" data-name="Tracé 3" d="M0,83.673a4.1,4.1,0,0,0,4.091,4.091H33.675V85.946H31.78V81.4h1.894v-.8h2.273V78.786H34.584V74.241h1.364V72.423H34.47V70.869l-2.245-4.2h2.358V64.22l-5.933-7.252H7.72l-5.4,8.505a4.071,4.071,0,0,0,2.524,7.249,4.061,4.061,0,0,0-1.116,6.9A4.082,4.082,0,0,0,0,83.673ZM2.614,68.635a2.265,2.265,0,0,1,1.161-1.971h27.1v4.244H4.887A2.276,2.276,0,0,1,2.614,68.635Zm3.75,5.606h26.4v4.545H6.364a2.273,2.273,0,1,1,0-4.545ZM4.091,81.4H29.962v4.546H4.091a2.273,2.273,0,0,1,0-4.546Z" transform="translate(0 0)" fill="#787878"/>
  </g>
</svg>
