<svg id="Capa_1" data-name="Capa 1" xmlns="http://www.w3.org/2000/svg" viewBox="0 0 465 569"><title>retour</title><path d="M225,371.51v88.56a7.5,7.5,0,0,0,15,0V371.69C235,371.58,230,371.53,225,371.51Z"/><path d="M232.5,228.62a7.5,7.5,0,0,0-7.5,7.5V348.44c3.06,2.34,5.89,5,9,7.23a61.56,61.56,0,0,1,6-7V236.12A7.5,7.5,0,0,0,232.5,228.62Z"/><path d="M221.81,477.25c-12.1-13.24-34.08-29-70.11-29-31.15,0-61.18,10.39-87.67,19.57-17.73,6.14-34.63,12-49,13.63v-287c16.49-1.57,34.76-7.9,53.94-14.54,25.38-8.78,54.14-18.74,82.76-18.74a93.41,93.41,0,0,1,20.89,2.25c-.76-5.19-1.41-10.34-.15-15.34a109.3,109.3,0,0,0-20.74-1.91c-31.14,0-61.17,10.39-87.66,19.57-20.93,7.24-40.68,14.08-56.54,14.08a7.5,7.5,0,0,0-7.5,7.5V489.37a7.5,7.5,0,0,0,7.5,7.5c18.38,0,39.3-7.24,61.44-14.91,25.38-8.78,54.14-18.74,82.76-18.74,24.54,0,44.4,8.12,59,24.15a7.5,7.5,0,1,0,11.08-10.12Z"/><path d="M457.5,179.78c-15.86,0-35.61-6.84-56.53-14.08-26.49-9.18-56.52-19.57-87.67-19.57A111.7,111.7,0,0,0,297,147.32c-.05,5.07-.15,10.15-.26,15.22a95.2,95.2,0,0,1,16.59-1.41c28.62,0,57.38,10,82.76,18.74,19.19,6.65,37.45,13,53.94,14.54v287c-14.4-1.64-31.3-7.49-49-13.63-26.49-9.18-56.52-19.57-87.67-19.57-36,0-58,15.79-70.11,29a7.5,7.5,0,0,0,11.08,10.11c14.63-16,34.49-24.15,59-24.15,28.62,0,57.38,10,82.76,18.74,22.14,7.67,43.06,14.92,61.44,14.92a7.5,7.5,0,0,0,7.5-7.5V187.28A7.5,7.5,0,0,0,457.5,179.78Z"/><path d="M457.5,511.87c-15.86,0-35.61-6.84-56.53-14.08-26.49-9.18-56.52-19.57-87.67-19.57-33.84,0-55.29,13.93-67.79,26.59h-26c-12.5-12.66-34-26.59-67.79-26.59-31.15,0-61.17,10.4-87.67,19.57C43.11,505,23.36,511.87,7.5,511.87a7.5,7.5,0,0,0,0,15c18.38,0,39.3-7.24,61.44-14.91,25.38-8.78,54.14-18.74,82.76-18.74,24.54,0,44.4,8.12,59,24.15a7.51,7.51,0,0,0,5.54,2.44h32.46a7.48,7.48,0,0,0,5.53-2.44c14.64-16,34.5-24.15,59-24.15,28.62,0,57.38,10,82.76,18.74,22.14,7.67,43.06,14.91,61.44,14.91a7.5,7.5,0,0,0,0-15Z"/><path d="M105.15,111.77h264.3a0,0,0,0,1,0,0v80a0,0,0,0,1,0,0H105.15a7.25,7.25,0,0,1-7.25-7.25V119a7.25,7.25,0,0,1,7.25-7.25Z" transform="translate(385.45 -81.9) rotate(90)"/><path d="M119.87,240.38,227.71,350.59c1.95,1.62,3.88,3.27,5.91,4.78l3.29-3.36a34.21,34.21,0,0,1,4.53-4.64l104.69-107Z"/></svg>