<svg id="user" xmlns="http://www.w3.org/2000/svg" width="32" height="32" viewBox="0 0 32 32">
  <path id="Tracé_1" data-name="Tracé 1" d="M16,0A16,16,0,1,0,32,16,16.018,16.018,0,0,0,16,0Zm0,2A13.976,13.976,0,0,1,27.069,24.54a25.834,25.834,0,0,0-22.138,0A13.976,13.976,0,0,1,16,2ZM6.334,26.1a23.816,23.816,0,0,1,19.332,0,13.936,13.936,0,0,1-19.332,0Z" fill="#787878"/>
  <path id="Tracé_2" data-name="Tracé 2" d="M178,149.319a5.769,5.769,0,1,0-5.769-5.769A5.775,5.775,0,0,0,178,149.319Zm0-9.614a3.846,3.846,0,1,1-3.846,3.846A3.849,3.849,0,0,1,178,139.7Z" transform="translate(-161.997 -129.597)" fill="#787878"/>
</svg>
